# xmcd CD database file
#
# Track frame offsets:
#	150
#	18039
#	45298
#	62297
#	75807
#	87456
#	99537
#	123315
#	135316
#	159587
#	182628
#	201070
#	235720
#	256672
#	278469
#
# Disc length: 4008 seconds
#
# Revision: 1
# Processed by: cddbd v1.5.2PL0 Copyright (c) Steve Scherf et al.
# Submitted via: CDex 1.51
#
DISCID=a10fa60f
DTITLE=Marvin Gaye - Indispensables
DYEAR=2001
DGENRE=Blues
TTITLE0=Sexual Healing
TTITLE1=Eockin'After Midnight
TTITLE2=Dream Of A Lifetime
TTITLE3=The Shadow Of Your Smile
TTITLE4=Happy Go Lucky
TTITLE5=More
TTITLE6=Midnight Lady
TTITLE7=I Won't Cry Anymore
TTITLE8=Sanctified Lady
TTITLE9=My Love Is Waiting
TTITLE10=Just Like
TTITLE11=Life's Opera
TTITLE12=Masochistic Beauty
TTITLE13=Ain't It Funny
TTITLE14='Til Tomorrow
EXTD=YEAR: 2001
EXTT0=
EXTT1=
EXTT2=
EXTT3=
EXTT4=
EXTT5=
EXTT6=
EXTT7=
EXTT8=
EXTT9=
EXTT10=
EXTT11=
EXTT12=
EXTT13=
EXTT14=
PLAYORDER=
